<svg width="1600" height="1100" viewBox="0 0 1600 1100" fill="none" xmlns="http://www.w3.org/2000/svg">
  <rect width="1600" height="1100" fill="#09090B"/>
  <rect width="1600" height="1100" fill="url(#paint0_radial)"/>
  <rect width="1600" height="1100" fill="url(#paint1_linear)"/>
  <g opacity="0.7" filter="url(#filter0_f)">
    <circle cx="1278" cy="210" r="204" fill="#A77A46"/>
  </g>
  <g opacity="0.45" filter="url(#filter1_f)">
    <circle cx="364" cy="102" r="242" fill="#3E4A66"/>
  </g>
  <rect x="96" y="96" width="1408" height="908" rx="44" stroke="url(#paint2_linear)" stroke-opacity="0.42"/>
  <path d="M817 336C937.472 336 1035 433.528 1035 554V792H599V554C599 433.528 696.528 336 817 336Z" fill="url(#paint3_linear)"/>
  <circle cx="817" cy="250" r="122" fill="url(#paint4_linear)"/>
  <path d="M568 810H1066" stroke="url(#paint5_linear)" stroke-width="2"/>
  <path d="M629 880H1005" stroke="url(#paint6_linear)" stroke-width="2"/>
  <circle cx="1198" cy="848" r="2.5" fill="#D8B78A"/>
  <circle cx="1218" cy="848" r="2.5" fill="#D8B78A"/>
  <circle cx="1238" cy="848" r="2.5" fill="#D8B78A"/>
  <rect x="146" y="804" width="230" height="74" rx="22" fill="#0D1015" fill-opacity="0.84" stroke="url(#paint7_linear)" stroke-opacity="0.36"/>
  <path d="M198.975 858L180.125 824.4H191.275L204.575 850L217.725 824.4H228.875L210.175 858H198.975ZM234.681 858V824.4H244.781V858H234.681ZM252.743 858V824.4H264.043L276.443 845.85L288.843 824.4H300.143V858H290.043V839.8L281.143 854.35H271.693L262.843 839.85V858H252.743Z" fill="#F2EBDE"/>
  <defs>
    <filter id="filter0_f" x="874" y="-194" width="808" height="808" filterUnits="userSpaceOnUse" color-interpolation-filters="sRGB">
      <feFlood flood-opacity="0" result="BackgroundImageFix"/>
      <feBlend mode="normal" in="SourceGraphic" in2="BackgroundImageFix" result="shape"/>
      <feGaussianBlur stdDeviation="100" result="effect1_foregroundBlur_1_2"/>
    </filter>
    <filter id="filter1_f" x="-78" y="-340" width="884" height="884" filterUnits="userSpaceOnUse" color-interpolation-filters="sRGB">
      <feFlood flood-opacity="0" result="BackgroundImageFix"/>
      <feBlend mode="normal" in="SourceGraphic" in2="BackgroundImageFix" result="shape"/>
      <feGaussianBlur stdDeviation="100" result="effect1_foregroundBlur_1_2"/>
    </filter>
    <radialGradient id="paint0_radial" cx="0" cy="0" r="1" gradientUnits="userSpaceOnUse" gradientTransform="translate(1234 124) rotate(131.554) scale(1149.29 1237.17)">
      <stop stop-color="#7C5832" stop-opacity="0.33"/>
      <stop offset="1" stop-color="#09090B" stop-opacity="0"/>
    </radialGradient>
    <linearGradient id="paint1_linear" x1="196" y1="95" x2="1440" y2="1010" gradientUnits="userSpaceOnUse">
      <stop stop-color="#101318"/>
      <stop offset="0.42" stop-color="#09090B"/>
      <stop offset="1" stop-color="#111722"/>
    </linearGradient>
    <linearGradient id="paint2_linear" x1="96" y1="96" x2="1504" y2="1004" gradientUnits="userSpaceOnUse">
      <stop stop-color="#C6A06D"/>
      <stop offset="1" stop-color="#32415C"/>
    </linearGradient>
    <linearGradient id="paint3_linear" x1="817" y1="336" x2="817" y2="792" gradientUnits="userSpaceOnUse">
      <stop stop-color="#1F2937"/>
      <stop offset="1" stop-color="#090B10"/>
    </linearGradient>
    <linearGradient id="paint4_linear" x1="817" y1="128" x2="817" y2="372" gradientUnits="userSpaceOnUse">
      <stop stop-color="#283446"/>
      <stop offset="1" stop-color="#10141C"/>
    </linearGradient>
    <linearGradient id="paint5_linear" x1="568" y1="811" x2="1066" y2="811" gradientUnits="userSpaceOnUse">
      <stop stop-color="#1A1F29"/>
      <stop offset="0.5" stop-color="#D0A36C"/>
      <stop offset="1" stop-color="#1A1F29"/>
    </linearGradient>
    <linearGradient id="paint6_linear" x1="629" y1="881" x2="1005" y2="881" gradientUnits="userSpaceOnUse">
      <stop stop-color="#10151E"/>
      <stop offset="0.5" stop-color="#50627C"/>
      <stop offset="1" stop-color="#10151E"/>
    </linearGradient>
    <linearGradient id="paint7_linear" x1="146" y1="804" x2="376" y2="878" gradientUnits="userSpaceOnUse">
      <stop stop-color="#E1B67D"/>
      <stop offset="1" stop-color="#4A5C78"/>
    </linearGradient>
  </defs>
</svg>
